<?xml version="1.0" encoding="UTF-8"?>
<svg id="Layer_1" data-name="Layer 1" xmlns="http://www.w3.org/2000/svg" xmlns:xlink="http://www.w3.org/1999/xlink" version="1.1" viewBox="0 0 1080 288">
  <defs>
    <style>
      .cls-1 {
        fill: url(#linear-gradient);
      }

      .cls-1, .cls-2, .cls-3, .cls-4 {
        stroke-width: 0px;
      }

      .cls-2 {
        fill: #f6f6f6;
      }

      .cls-3 {
        fill: url(#linear-gradient-2);
      }

      .cls-4 {
        fill: url(#linear-gradient-3);
      }
    </style>
    <linearGradient id="linear-gradient" x1="45" y1="72.6" x2="305.7" y2="333.3" gradientTransform="translate(0 290) scale(1 -1)" gradientUnits="userSpaceOnUse">
      <stop offset="0" stop-color="#007089"/>
      <stop offset=".5" stop-color="#00b6bf"/>
    </linearGradient>
    <linearGradient id="linear-gradient-2" x1="99.9" y1="-2.6" x2="231.1" y2="128.6" gradientTransform="translate(0 290) scale(1 -1)" gradientUnits="userSpaceOnUse">
      <stop offset=".6" stop-color="#007089"/>
      <stop offset="1" stop-color="#00b6bf"/>
    </linearGradient>
    <linearGradient id="linear-gradient-3" x1="81.1" y1="22.7" x2="329.7" y2="271.3" gradientTransform="translate(0 290) scale(1 -1)" gradientUnits="userSpaceOnUse">
      <stop offset=".4" stop-color="#007089"/>
      <stop offset=".7" stop-color="#00b6bf"/>
    </linearGradient>
  </defs>
  <g>
    <polygon class="cls-2" points="358.6 176.5 340.6 121.8 339.4 121.8 327.6 121.8 326.6 121.8 308.2 177.2 289.9 121.8 275.7 121.8 300.9 196 302 196 314.4 196 315 196 333.5 139.6 352 196 365.1 196 366 196 391.2 121.8 377.1 121.8 358.6 176.5"/>
    <path class="cls-2" d="M456.1,123.6c-4.3-2.4-9.3-3.6-15.1-3.6s-11.1,1.5-15.4,4.5c-3,2.1-5.5,4.8-7.5,8.1v-40.5h-14v104h14v-38.6c0-7.7,1.7-13.7,5-18,3.4-4.3,8.1-6.4,14.3-6.4,3.5.1,6.6.8,9.3,2.2s4.9,3.8,6.5,7.4c1.6,3.5,2.4,8.6,2.4,15.4v38h14v-41.7c.1-8.1-1-14.7-3.4-19.7-2.4-5-5.7-8.7-9.9-11.1Z"/>
    <path class="cls-2" d="M496.8,88.9c-2.3,0-4.3.8-5.9,2.4s-2.5,3.6-2.5,6,.8,4.3,2.5,6c1.7,1.7,3.7,2.6,5.9,2.6s4.4-.9,6-2.6c1.6-1.7,2.5-3.7,2.5-6s-.8-4.4-2.5-6c-1.6-1.6-3.6-2.4-6-2.4Z"/>
    <rect class="cls-2" x="489.7" y="121.8" width="14.1" height="74.3"/>
    <path class="cls-2" d="M559.3,184.3c-1.2.4-2.3.6-3.3.6-3.5,0-6.1-1-8-2.9-1.8-1.9-2.8-4.7-2.8-8.4v-39.7h21.1v-12.2h-21.1v-23.2h-14.1v23.2h-12.6v12.2h12.6v41.7c0,7.1,2,12.6,6.1,16.4s9.8,5.7,17.2,5.7,4.7-.4,7.1-1.2c2.3-.8,4.8-2,7.3-3.7l-5.3-11c-1.7,1.2-3.1,2-4.3,2.4Z"/>
    <path class="cls-2" d="M646.9,139.7c-2.9-6.3-7-11.1-12.1-14.6-5.2-3.4-11.1-5.1-18-5.1s-13.6,1.7-19.2,5c-5.6,3.3-10,7.9-13.2,13.7-3.2,5.8-4.8,12.6-4.8,20.2s1.6,14.4,4.8,20.2,7.5,10.4,13.1,13.7,11.9,5,19.2,5,10.2-.8,14.5-2.4c4.3-1.6,8-3.8,11.2-6.8,3.2-2.9,5.7-6.3,7.7-10.2l-12.2-5.6c-1.9,3.6-4.5,6.5-7.8,8.8s-7.5,3.5-12.4,3.5-8.6-1-12.2-3.1c-3.6-2-6.4-5-8.5-8.8-1.8-3.3-2.8-7.1-3-11.4h57.3c0-8.5-1.4-15.9-4.4-22.2ZM598,141.7c2.1-3.1,4.8-5.4,8.2-7.1,3.3-1.6,6.8-2.4,10.3-2.4s7,.8,10,2.4c3,1.6,5.3,4,7.1,7.1,1.5,2.6,2.3,5.6,2.6,9h-41.2c.3-3.5,1.3-6.5,3.1-9.1Z"/>
    <path class="cls-2" d="M711.7,158.2c-3.2-2.4-7.2-4.2-12-5.4l-8-1.9c-3.8-1-6.6-2.2-8.5-3.8-1.9-1.5-2.9-3.1-2.9-4.8,0-3.1,1.1-5.5,3.4-7.2,2.3-1.7,5.4-2.6,9.4-2.6s7.2.7,10.1,2.1c2.9,1.4,4.9,3.6,6.1,6.6l11.9-5.4c-1.1-3.3-3-6.1-5.6-8.5-2.6-2.4-5.8-4.2-9.5-5.5-3.7-1.3-7.8-1.9-12.2-1.9-9.1,0-16,2-20.7,5.9-4.7,4-7,9.6-7,16.8s1.9,9,5.7,12.8c3.8,3.8,9.2,6.6,16.1,8.5l7,1.8c4,1,7,2.3,9.1,3.9s3.1,3.8,3.1,6.5-1.4,5.1-4.2,6.7c-2.8,1.6-6.3,2.4-10.5,2.4s-7.4-1-10.5-3-5.5-4.5-7.1-7.6l-12.2,5.4c1.4,3.4,3.5,6.4,6.3,9.1s6.3,4.8,10.4,6.4c4.1,1.6,8.8,2.4,14,2.4s10.1-.9,14.3-2.7,7.5-4.3,10-7.6c2.4-3.3,3.6-7.2,3.6-11.7s-.8-6.4-2.4-9.4c-1.6-3-3.9-5.7-7.1-8.2Z"/>
    <path class="cls-2" d="M770.9,184.3c-1.2.4-2.3.6-3.3.6-3.5,0-6.1-1-8-2.9s-2.8-4.7-2.8-8.4v-39.7h21.1v-12.2h-21.1v-23.2h-14.1v23.2h-12.6v12.2h12.6v41.7c0,7.1,2,12.6,6.1,16.4s9.8,5.7,17.2,5.7,4.7-.4,7.1-1.2c2.3-.8,4.8-2,7.3-3.7l-5.3-11c-1.7,1.2-3.1,2-4.3,2.4Z"/>
    <path class="cls-2" d="M848.1,125c-5.6-3.3-12.2-5-19.6-5s-13.7,1.7-19.3,5-10,7.9-13.2,13.7-4.8,12.6-4.8,20.2,1.6,14.4,4.8,20.2c3.2,5.8,7.7,10.4,13.3,13.7,5.6,3.3,12.2,5,19.6,5s13.6-1.7,19.2-5c5.6-3.3,10-7.9,13.2-13.7,3.2-5.8,4.8-12.6,4.8-20.2s-1.6-14.4-4.8-20.2c-3.2-5.8-7.6-10.4-13.2-13.7ZM848.8,172.4c-2,3.9-4.7,6.9-8.1,9.1-3.4,2.2-7.3,3.3-11.8,3.3s-8.6-1.1-12.2-3.3-6.3-5.3-8.3-9.1-3-8.4-3-13.5,1-9.5,3-13.4,4.7-7,8.2-9.2c3.5-2.2,7.5-3.3,12-3.3s8.4,1.1,12,3.3c3.5,2.2,6.3,5.3,8.2,9.1,2,3.9,3,8.4,3,13.5s-1,9.7-3,13.5Z"/>
    <path class="cls-2" d="M935.1,123.6c-4.3-2.4-9.4-3.6-15.2-3.6s-11.1,1.5-15.4,4.5c-3,2.1-5.5,4.8-7.5,8.1l-.7-10.8h-13.2v74.3h14.1v-38.6c0-7.7,1.7-13.7,5-18,3.4-4.3,8.1-6.4,14.1-6.4,3.6.1,6.7.8,9.4,2.2s4.8,3.8,6.4,7.4c1.5,3.5,2.3,8.6,2.3,15.4v38h14.1v-41.7c0-8.1-1.2-14.7-3.5-19.7-2.3-5-5.6-8.7-9.9-11.1Z"/>
    <path class="cls-2" d="M1014.1,181.7c-3.3,2.3-7.5,3.5-12.4,3.5s-8.6-1-12.2-3.1c-3.6-2-6.4-5-8.5-8.8-1.8-3.3-2.8-7.1-3-11.4h57.3c0-8.5-1.5-15.9-4.4-22.2-2.9-6.3-7-11.1-12.1-14.6-5.2-3.4-11.1-5.1-18-5.1s-13.6,1.7-19.2,5c-5.6,3.3-10,7.9-13.2,13.7-3.2,5.8-4.8,12.6-4.8,20.2s1.6,14.4,4.8,20.2,7.5,10.4,13.1,13.7,11.9,5,19.2,5,10.2-.8,14.5-2.4c4.3-1.6,8-3.8,11.2-6.8,3.2-2.9,5.7-6.3,7.7-10.2l-12.2-5.6c-1.9,3.6-4.5,6.5-7.8,8.8ZM982,141.7c2.1-3.1,4.8-5.4,8.2-7.1,3.3-1.6,6.8-2.4,10.3-2.4s7,.8,10,2.4c3,1.6,5.3,4,7.1,7.1,1.5,2.6,2.3,5.6,2.6,9h-41.2c.3-3.5,1.3-6.5,3.1-9.1Z"/>
  </g>
  <g>
    <path class="cls-1" d="M163.6,66.8c-24.4-4.3-45.7,3.5-64,20.8-25.8,23.6-50.1,55.9-54,91.6-1.8,15.9,5,31.5,20.6,36.7,16.2,5.7,36.1,5.6,52.1-1.2,20.9-8.8,28.2-31.3,39.7-49.6,9-14.6,21.3-27.6,29-42.9,13.1-24.4,5.7-49.9-22.9-55.4h-.5Z"/>
    <path class="cls-3" d="M248.1,192.2c-1.3-14.1-17.7-26.6-31-32.2-15.4-6.8-34.4-6.5-46.9,5.6-22.1,21.3-10.7,57,21.2,56.9,18.7.5,57.5-6.6,56.8-29.8v-.4Z"/>
    <path class="cls-4" d="M205.6,147.2c12.4,9.2,31.8,1.3,35.2-13.6,3.3-11.5-4.2-25.5-15.2-28.1-21.4-5.3-38.5,28.1-20.3,41.4l.4.3Z"/>
  </g>
</svg>